# File produced by Open Asset Import Library (http://www.assimp.sf.net)
# (assimp v4.1.0)

mtllib 2ojcg5fstt56.mtl

# 60 vertex positions
v  5.75 0.239999994635582 0
v  4.010000228881836 0.239999994635582 0
v  0.1000000014901161 4.079959869384766 -0.239999994635582
v  0.1000000014901161 4.079959869384766 0
v  0.1000000014901161 0 -0.239999994635582
v  12.5 5 2.886749982833862
v  5.75 0.239999994635582 2.5
v  12.5 5 3.117690086364746
v  0.300000011920929 -0.300000011920929 2.700000047683716
v  3.799999952316284 -0.239999994635582 2.5
v  3.799999952316284 0 2.5
v  3.799999952316284 0 0
v  -0.5 0.5 -0.05773499980568886
v  -0.5 0.5 -0.2886750102043152
v  -0.5 -0.5 -0.05773499980568886
v  0 9.800000190734863 0
v  0 9.800000190734863 -0.2000000029802322
v  -0.1000000014901161 4.079959869384766 0
v  -0.5 5 2.886749982833862
v  7.409999847412109 0.239999994635582 2.5
v  7.409999847412109 0.239999994635582 0
v  0 -0.239999994635582 2.5
v  4.010000228881836 0 2.5
v  12.5 -0.5 -0.05773499980568886
v  12.5 0.5 -0.05773499980568886
v  12 0 2.700000047683716
v  -0.5 -0.5 -0.2886750102043152
v  -0.5 -5 2.886749982833862
v  -0.5 -5 3.117690086364746
v  9.699999809265137 -0.300000011920929 2.700000047683716
v  11.69999980926514 -0.300000011920929 2.700000047683716
v  10 0 2.700000047683716
v  12.5 -5 3.117690086364746
v  4.289999961853027 0 0
v  4.010000228881836 0 0
v  3.799999952316284 -0.239999994635582 0
v  -0.1000000014901161 4.079959869384766 -0.239999994635582
v  11.80000019073486 9.800000190734863 -0.2000000029802322
v  11.80000019073486 9.800000190734863 0
v  4.010000228881836 0.239999994635582 2.5
v  4.289999961853027 0 2.5
v  0 -10 -0.2000000029802322
v  0 0 2.700000047683716
v  0.300000011920929 0.239999994635582 2.5
v  5.989999771118164 0 2.5
v  7.409999847412109 0 2.5
v  -0.5 5 3.117690086364746
v  0 -10 0
v  4.289999961853027 -0.239999994635582 0
v  12.5 -5 2.886749982833862
v  5.989999771118164 0 0
v  7.409999847412109 0 0
v  12 -10 0
v  12 -10 -0.2000000029802322
v  9.699999809265137 -0.300000011920929 0
v  12.5 -0.5 -0.2886750102043152
v  10 0 0
v  4.289999961853027 -0.239999994635582 2.5
v  12.5 0.5 -0.2886750102043152
v  11.80000019073486 0 -0.2000000029802322

# 0 UV coordinates

# 58 vertex normals
vn 0.4490579962730408 0.8200293779373169 -0.3548220694065094
vn 0.04304847866296768 -0.01943178474903107 -0.9988839626312256
vn 0.1277352720499039 0.03605738282203674 -0.9911526441574097
vn 0.7872834801673889 0.6165370345115662 0.008173773065209389
vn 0.06456848978996277 -0.0006268014549277723 -0.9979130625724792
vn 0.1611334383487701 0.8205556869506836 0.5483834743499756
vn 0.4768820703029633 0.8668156266212463 0.1456507295370102
vn -0.03318490087985992 -0.03173552453517914 0.9989452362060547
vn 0.05688862875103951 0.06872891634702682 0.9960120320320129
vn 0.04855751618742943 0.08091331273317337 0.9955375790596008
vn 0.0557817667722702 -0.02440455555915833 0.9981447458267212
vn 0.06124376878142357 -0.02679418213665485 -0.9977630972862244
vn -0.9993138313293457 -0.007004491053521633 0.03636975586414337
vn -0.2665594816207886 0.02613738551735878 -0.9634640216827393
vn -0.9822498559951782 0.08853254467248917 0.165369838476181
vn 0 0.5408859848976135 0.8410959839820862
vn 0 0.08362158387899399 -0.9964975118637085
vn -0.9891629815101624 0.05267077684402466 -0.1370489597320557
vn -0.4860825538635254 0.8713719248771667 -0.06659481674432755
vn -0.5052976012229919 0.6156057715415955 0.6047344207763672
vn -0.7726886868476868 0.6347755789756775 -0.003500318853184581
vn -0.984448254108429 0.08783736079931259 0.1521388441324234
vn 0 0 1
vn 0.9855368137359619 0.07998222857713699 0.1493987143039703
vn 0.9851697683334351 -0.08098338544368744 0.1512687802314758
vn 0.8843497037887573 -0.01919996738433838 0.4664301574230194
vn -0.5223562717437744 -0.03325790911912918 -0.8520784974098206
vn -0.1085502058267593 -0.692496120929718 0.7132081389427185
vn -0.002958300756290555 0.04137478023767471 0.9991393089294434
vn -0.04315558820962906 0.06042341515421867 0.9972395300865173
vn -0.01019730791449547 0.07817932218313217 0.9968871474266052
vn -0.04521401599049568 -0.05288907885551453 0.9975762367248535
vn -0.03345020487904549 0.03011823818087578 0.9989864826202393
vn 0 0 -1
vn 0.06042204424738884 -0.002103549661114812 -0.9981707334518433
vn -0.8526684641838074 0.06414647400379181 -0.518499493598938
vn 0.434654176235199 0.04692288115620613 -0.89937424659729
vn -0.6779529452323914 0.325112372636795 0.6593039035797119
vn 0.003656675573438406 -0.08824813365936279 0.9960917830467224
vn -0.4763211309909821 -0.04908895120024681 -0.8778999447822571
vn -0.8965011239051819 -0.03937295824289322 0.4412885308265686
vn 0.05430283769965172 -0.07773131877183914 0.9954943060874939
vn -0.4981503784656525 -0.8071061372756958 0.316900372505188
vn -0.04798250645399094 0.0708385705947876 0.9963330626487732
vn 0.0377751886844635 -0.07461657375097275 0.9964965581893921
vn 0.7023789882659912 -0.321741133928299 0.63493812084198
vn 0.7653814554214478 -0.527336597442627 0.3689271807670593
vn 0.1049796864390373 -0.8558118939399719 0.5065227150917053
vn -0.352030336856842 -0.8995212316513062 -0.2587205469608307
vn -0.8649153113365173 -0.4999949634075165 -0.04389217868447304
vn -0.6894201636314392 -0.3293470442295074 0.6451592445373535
vn 0.458516001701355 -0.03960603475570679 -0.8878031373023987
vn -0.05604836717247963 0.008936383761465549 -0.9983880519866943
vn 0.6716560125350952 -0.03938297554850578 -0.7398156523704529
vn -0.05671185627579689 -0.008843683637678623 -0.9983514547348022
vn 0.5504150390625 -0.8248326778411865 0.1292068362236023
vn 0.6979678869247437 0.05597669631242752 -0.7139379978179932
vn -0.1096743270754814 0.0253094770014286 -0.9936452507972717

# Mesh '<OFFRoot>' with 118 faces
g <OFFRoot>
usemtl $Material_0
f  1//1 2//2 3//3
f  4//4 1//1 3//3
f  5//5 3//3 2//2
f  6//6 7//7 8//8
f  9//9 10//10 11//11
f  2//2 12//12 5//5
f  13//13 14//14 15//15
f  16//16 17//17 18//18
f  16//16 18//18 19//19
f  7//7 20//20 21//21
f  6//6 21//21 20//20
f  6//6 20//20 7//7
f  19//19 7//7 4//4
f  7//7 20//20 8//8
f  22//22 13//13 15//15
f  10//10 23//23 11//11
f  24//24 25//25 26//26
f  27//27 15//15 14//14
f  28//28 29//29 22//22
f  28//28 22//22 15//15
f  30//30 31//31 32//32
f  33//33 31//31 30//30
f  17//17 4//4 3//3
f  1//1 34//34 2//2
f  12//12 35//34 36//35
f  18//18 37//36 13//13
f  38//37 21//21 39//38
f  5//5 14//14 3//3
f  40//39 41//23 7//7
f  2//2 34//34 35//34
f  33//33 26//26 31//31
f  32//32 31//31 26//26
f  32//32 26//26 8//8
f  27//27 42//40 28//28
f  29//29 9//9 43//41
f  9//9 40//39 43//41
f  44//42 43//41 40//39
f  38//37 39//38 6//6
f  27//27 28//28 15//15
f  20//20 45//43 46//44
f  20//20 46//44 30//30
f  44//42 40//39 47//45
f  44//42 47//45 43//41
f  43//41 22//22 29//29
f  18//18 13//13 19//19
f  48//46 42//40 49//47
f  49//47 28//28 48//46
f  28//28 42//40 48//46
f  47//45 7//7 19//19
f  14//14 37//36 3//3
f  13//13 37//36 14//14
f  8//8 26//26 6//6
f  50//48 51//49 52//50
f  50//48 52//50 53//51
f  3//3 37//36 17//17
f  18//18 17//17 37//36
f  40//39 23//23 41//23
f  53//51 54//52 50//48
f  22//22 43//41 13//13
f  5//5 27//27 14//14
f  43//41 19//19 13//13
f  43//41 47//45 19//19
f  1//1 4//4 7//7
f  16//16 4//4 17//17
f  16//16 19//19 4//4
f  5//5 12//12 36//35
f  52//50 54//52 53//51
f  55//53 56//54 54//52
f  55//53 54//52 52//50
f  55//53 21//21 57//55
f  10//10 9//9 29//29
f  40//39 7//7 47//45
f  2//2 35//34 12//12
f  49//47 35//34 34//34
f  36//35 35//34 49//47
f  5//5 36//35 27//27
f  6//6 26//26 25//25
f  21//21 38//37 57//55
f  40//39 11//11 23//23
f  40//39 9//9 11//11
f  49//47 58//56 28//28
f  42//40 36//35 49//47
f  27//27 36//35 42//40
f  20//20 32//32 8//8
f  50//48 33//33 45//43
f  46//44 45//43 33//33
f  46//44 33//33 30//30
f  30//30 32//32 20//20
f  23//23 58//56 41//23
f  29//29 28//28 58//56
f  10//10 29//29 58//56
f  21//21 55//53 52//50
f  24//24 56//54 59//57
f  55//53 57//55 60//58
f  49//47 34//34 1//1
f  6//6 39//38 21//21
f  7//7 21//21 1//1
f  1//1 51//49 49//47
f  60//58 56//54 55//53
f  50//48 56//54 24//24
f  59//57 56//54 60//58
f  1//1 21//21 51//49
f  50//48 54//52 56//54
f  57//55 59//57 60//58
f  38//37 59//57 57//55
f  38//37 6//6 59//57
f  6//6 25//25 59//57
f  24//24 59//57 25//25
f  21//21 52//50 51//49
f  7//7 45//43 20//20
f  23//23 10//10 58//56
f  45//43 51//49 50//48
f  50//48 26//26 33//33
f  50//48 24//24 26//26
f  41//23 58//56 7//7
f  45//43 58//56 51//49
f  45//43 7//7 58//56
f  51//49 58//56 49//47

